<?xml version="1.0" encoding="UTF-8"?>
<!-- Generator: Adobe Illustrator 16.0.0, SVG Export Plug-In . SVG Version: 6.00 Build 0)  -->
<svg width="1024" height="1024" enable-background="new 0 0 2008 2180" version="1.1" viewBox="0 0 1024 1024" xml:space="preserve" xmlns="http://www.w3.org/2000/svg">
<path d="m272.32 219.432c-24.8782 60.0453-53.1916 119.841-60.076 184.856-11.1587 83.9846-11.6818 169.693-0.87716 253.744 8.4502 54.8108 32.3822 107.627 66.0784 152.358 45.551 57.2114 114.967 92.1147 182.09 109.451 74.8958 22.2182 164.436 29.2518 230.236-21.8704 67.3129-49.6994 117.299-139.95 90.1578-222.658-11.5318-48.4847-23.7927-105.124-14.1779-154.427 6.22079-45.8376 14.507-90.5412 30.4726-134.545 17.6142-50.9878 17.2494-127.44-4.72213-177.915 105.253-35.1149 17.7592-149.101-59.926-66.4854 10.2657-26.3552-50.6003-35.155-71.2068-49.6787-48.8797-27.152-105.151-41.4797-161.697-37.137-61.5346 1.57192-113.678 29.9514-163.866 68.1487-14.8278 16.2734-29.8743 31.3877-38.3742 51.7959-8.03733 14.7875-16.0747 29.575-24.112 44.3625z" fill="#ffd42a" stroke-width=".669536"/><g transform="translate(-381.489 -322.766)" display="none">
	<g clip-rule="evenodd" display="inline" fill="#9ccff3" fill-rule="evenodd">
		<path d="m1339.76 1885.06c-7.07-5.245-14.525-9.909-22.794-13.236-2.026-0.814-4.977-2.261-5.683-3.874-1.569-3.587-4.623-4.998-7.435-6.409-8.454-4.245-15.993-10.034-24.614-14.016-4.31-1.99-7.788-5.787-12.105-7.747-11.184-5.076-21.354-12.014-32.671-16.892-10.546-4.546-20.419-10.629-30.806-15.579-13.166-6.274-25.782-13.587-39.078-19.658-15.208-6.943-30.559-13.634-45.381-21.466-5.731-3.029-12.216-4.936-18.134-7.589-8.315-3.728-17.095-6.59-24.899-11.542-2.467-1.564-6.264-1.891-8.611-0.678-6.287 3.244-8.246 9.709-8.171 16.138 0.041 3.594 2.468 6.946 6.728 8.64 5.331 2.118 10.434 4.805 15.797 6.967 9.509 3.835 18.273 9.278 27.909 13.007 11.209 4.337 21.392 10.957 32.719 15.262 9.26 3.519 17.637 9.124 27.001 12.652 9.9 3.73 19.264 8.817 28.778 13.375 20.291 9.722 40.657 19.374 60.243 30.568 14.232 8.134 28.967 15.39 43.486 23.018 2.991 1.571 6.271 2.711 8.997 4.645 9.29 6.59 19.999 10.311 30.312 15.992 0.494-5.941 5.895-0.482 7.353-4.209-2.392-2.838 0.831-3.996 1.832-5.484-1.943-5.939-6.603-8.792-10.773-11.885z"/>
		<path d="m1012.75 1838.39c-3.328-3.187-8.153-3.588-12.039-5.64-6.28-3.317-12.808-6.461-16.963-11.418-2.189-0.671-1.123 1.432-2.725 1.194-7.328-1.085-13.114-5.559-19.539-8.608-1.714-0.813-2.902-2.222-4.139-3.81-1.853-2.379-3.939-4.741-6.869-6.258-7.393-3.826-14.651-7.87-22.252-11.331-6.566-2.989-12.4-7.676-19.068-10.33-11.633-4.63-22.336-11.059-33.551-16.463-8.845-4.262-17.941-8.049-26.775-12.338-11.354-5.512-23.627-9.292-35.393-14.148-14.684-6.06-29.669-11.402-44.609-16.819-15.822-5.736-31.693-11.346-47.64-16.725-11.28-3.806-23.102-5.86-34.113-10.621-7.422-3.209-14.755-7.015-23.255-6.416-1.542 0.109-0.661-3.252-2.913-2.019-2.944 1.611-6.806 1.019-9.284 3.523-2.634 2.661-5.911 3.893-9.695 5.185 0.086 3.767 3.653 6.804 1.212 10.612-0.302 0.471 0.757 2.646 1.438 2.784 6.064 1.229 10.228 6.795 17.211 6.587 3.649-0.108 8.829-0.86 11.543 2.52 3.218 4.007 7.561 3.959 11.653 5.144 0.621 0.18 1.504 0.033 1.875 0.416 4.812 4.969 11.962 4.396 17.652 7.392 1.953 1.028 3.615 3.118 5.906 3.124 7.263 0.018 12.976 4.432 19.494 6.524 7.889 2.532 15.168 6.743 23.399 8.381 2.053 0.408 4.098-0.271 6.221 1.001 7.743 4.637 16.703 6.411 24.993 9.833 9.334 3.853 18.994 7.201 28.387 10.991 7.942 3.205 16.696 3.82 24.157 8.665 4.479 2.909 10.269 3.731 14.988 6.354 11.104 6.17 23.433 9.459 34.534 15.82 10.218 5.855 21.382 10.16 32.075 15.271 6.333 3.027 12.677 6.033 18.96 9.172 7.561 3.775 15.327 7.162 22.724 11.229 2.521 1.387 4.98 3.501 7.683 3.661 7.968 0.474 14.092 4.991 20.824 8.304 6.995 3.441 13.245 8.777 21.961 7.971 5.861-0.543 10.27-5.71 7.986-11.125-1.214-2.879-3.722-5.357-6.054-7.589z"/>
		<path d="m1261.03 1919.61c-3.266-2.011-6.355-3.586-9.239-6.681-4.935-5.294-11.776-8.944-18.16-12.702-3.47-2.041-9.374-0.632-9.229-7.261 0.01-0.195-0.485-0.418-0.763-0.601-6.242-4.095-12.94-7.647-18.604-12.428-5.792-4.889-13.89-5.855-18.801-11.921-0.112-0.138-0.597 0.026-1.084 0.062 0.189 0.553 0.359 1.048 0.529 1.543-4.84-2.247-6.312-7.939-11.538-9.811-2.316-0.829-5.606-1.79-6.686-2.992-4.32-4.811-10.216-6.989-15.299-10.343-12.512-8.252-25.565-15.678-38.355-23.51-11.645-7.131-24.04-12.832-36.264-18.809-14.414-7.047-29.271-13.183-43.809-19.986-2.609-1.221-6.639-0.061-7.735-4.134-6.951 0.334-12.425-4.013-18.526-6.19-13.702-4.891-27.049-10.785-40.509-16.347-9.138-3.775-18.158-7.843-27.352-11.475-6.963-2.751-13.837-5.675-20.709-8.638-6.821-2.942-13.295-6.777-20.233-9.198-10.681-3.727-21.269-7.76-31.907-11.57-8.18-2.93-16.157-5.785-24.815-6.789-1.798-0.208-2.943 0.069-4.275 0.976-5.81 3.953-4.638 9.437-3.339 14.919 6.28 2.827 12.546 5.695 18.815 8.501 13.01 5.821 25.981 11.734 39.011 17.529 13.748 6.114 27.431 12.375 41.171 18.508 13.012 5.808 25.923 11.853 38.979 17.581 10.718 4.703 21.293 9.741 31.838 14.825 4.536 2.187 8.604 5.525 13.298 7.158 6.637 2.311 12.976 5.207 19.133 8.43 4.377 2.29 9.242 5.452 13.316 5.956 4.023 0.498 7.545 1.733 10.145 3.65 10.156 7.489 22.227 10.749 33.378 15.951 7.124 3.324 14.086 6.929 20.711 11.002 10.865 6.681 21.531 13.702 32.911 19.475 7.783 3.948 15.52 8.062 22.625 13.004 6.52 4.534 13.217 8.861 20.159 12.443 13.483 6.957 26.581 14.606 39.903 21.829 9.658 5.235 19.747 9.786 28.842 16.126 2.561 1.785 5.879 1.749 9.254 0.144 3.279-1.56 4.733-4.933 7.764-6.391-0.746-0.541-1.481-1.174-2.305-1.655-4.655-2.719-7.712-7.389-12.246-10.18z"/>
		<path d="m1583.56 1431.5c-0.92-1.437-1.984-2.686-3.677-3.525-6.709-3.33-13.405-6.697-20.081-10.074-8.888-4.495-17.072-10.332-26.093-14.683-2.871-1.385-6.679-0.787-8.706-3.784-2.13-3.149-5.329-4.552-8.68-5.359-5.459-1.315-11.044-2.141-16.317-4.144-1.396-0.531-2.8-0.683-4.204-1.003-6.924-1.577-13.959-1.631-20.975-2.212-4.738-0.393-8.925-1.26-13.88 0.405-4.062 1.366-7.046 3.868-10.608 5.546-4.348 2.049-6.242 4.618-6.376 9.22-0.274 9.426-0.38 9.462 8.344 11.796 8.06 2.155 16.043 4.88 24.245 6.145 9.758 1.504 19.489 3.264 29.321 4.447 8.291 0.998 16.31 4.246 24.455 6.477 0.604 0.165 1.408-0.065 1.867 0.253 5.768 3.993 12.737 4.76 19.161 6.803 7.107 2.262 15.071 1.786 21.829 5.333 4.5 2.361 7.06-0.88 8.371-3.181 0.826-1.447 3.162-6.65-2.48-7.412 1.38-2.782 3.214 0.731 4.484-1.048z"/>
		<path d="m1600.05 1327.98c0.534-2.071 2.781-2.474 4.347-4.199-4.752-2.559-8.935-4.911-12.916-7.687-6.844-4.771-13.378-10.61-20.614-14.02-8.967-4.223-15.165-11.658-23.711-16.191-8.002-4.245-15.971-8.41-24.343-11.855-6.812-2.804-14.068-4.383-20.814-7.188-7.548-3.138-15.067-2.56-22.718-1.882-8.005 0.709-13.783 6.12-19.751 10.56-2.215 1.648-6.522 4.335-5.131 8.024 2.169 5.754 5.29 11.412 12.027 13.186 5.504 1.448 11.055 2.802 16.866 2.296 4.776-0.416 9.369 1.016 14.049 1.595 6.635 0.82 12.148 5.437 18.645 5.716 7.224 0.31 13.361 3.515 19.637 6.052 5.493 2.221 10.18 6.343 16.411 7.139 9.369 1.196 16.646 7.284 25.007 10.82 4.339 1.835 8.878 4.669 14.146 2.697 1.527-0.571 3.001 0.295 4.118 1.104 3.631 2.631 7.747 3.762 13.032 4.792-3.79-3.615-5.923-7.366-8.287-10.959z"/>
		<path d="m1573.87 1541.23c-6.314-3.466-11.689-8.272-17.938-11.751-4.488-2.498-7.79-6.472-12.031-9.335-2.979-2.011-6.453-2.68-9.337-4.909-6.103-4.718-12.225-9.715-19.09-13.051-6.464-3.14-12.703-6.759-19.322-9.598-14.573-6.251-29.287-11.175-45.628-10.091-3.888 0.258-7.237 1.32-10.821 1.89-5.023 0.798-8.379 5.303-13.085 4.803-1.047 8.087-6.127 15.235-4.482 23.362 8.823 1.533 17.054 2.645 25.223 3.906 5.016 0.774 9.955 0.219 14.679 0.899 6.982 1.006 13.572 4.486 20.468 6.418 7.009 1.963 13.14 6.569 20.655 6.859 6.625 0.257 11.707 4.116 17.143 7.123 5.633 3.115 11.102 6.594 17.721 7.205 1.079 0.1 1.875 0.38 2.593 1.152 3.703 3.987 9.483 4.982 13.134 9.079 0.378 0.424 1.124 0.714 1.708 0.729 3.865 0.103 7.359 0.749 10.577 3.401 1.969 1.625 4.66 2.843 7.594 2.52 2.555-0.281-0.996-3.469 2.167-3.534 6.796 5.135 7.379-5.028 12.84-4.795-3.161-3.086-6.206-4.987-8.973-6.75-2.554-1.624-3.699-4.383-5.795-5.532z"/>
		<path d="m1418.17 997.927c-4.382-4.163-10.364-4.623-15.321-7.517 1.521-3.195 3.444-5.732 5.429-8.31 3.117-4.048 6.821-7.92 7.655-13.237 0.417-2.66 1.36-4.847 2.925-7.006 1.446-1.995 3.477-5.461 1.362-6.736-4.242-2.559-0.882-4.507-0.178-6.89-2.805-0.032-3.269-2.405-4.108-3.952-3.546-6.528-8.256-11.817-14.665-15.631-2.493-1.484-2.751-3.822-1.899-6.472 2.507-7.794 4.098-15.831 6.467-23.686 5.049-16.736 9.408-33.688 13.706-50.64 5.286-20.855 12.081-41.277 15.784-62.61 2.595-14.947 5.197-29.784 5.607-44.946 0.044-1.649 0.666-3.083 0.449-4.973-0.932-8.133-1.699-16.322-1.425-24.563 0.216-6.468 0.767-13.052-0.127-19.401-1.774-12.608-3.865-25.184-7.191-37.542-5.235-19.456-10.057-39.019-20.083-57.086 8.623-2.496 17.304-3.083 24.293-7.443 6.477-4.04 12.804-8.486 18.617-13.8 9.793-8.95 17.978-19.019 25.57-29.73 3.684-5.197 5.073-11.368 6.418-17.285 2.262-9.953 5.612-20.004 1.968-30.48-0.682-1.959-0.458-4.385-0.778-6.465-0.576-3.737-1.45-8.058-3.793-10.743-3.271-3.748-5.426-8.065-7.729-12.191-7.105-12.729-16.733-22.526-30.238-28.111-6.186-2.558-12.643-4.513-19.083-6.374-2.405-0.695-3.809-2.992-6.465-3.131-17.245-0.901-34.221 0.153-50.337 7.067-5.576 2.392-10.965 5.221-16.432 7.865-3.891 1.881-8.67 2.93-11.461 5.863-5.422 5.699-12.396 9.425-17.675 15.19-1.712 1.869-3.725 2.112-6.529 1.227-4.833-1.527-8.103-5.048-11.949-7.797-10.016-7.158-20.142-14.206-29.709-21.936-15.329-12.385-32.983-20.614-50.336-29.444-5.096-2.593-10.46-4.806-15.158-7.992-3.875-2.629-8-4.832-12.089-6.844-9.408-4.632-18.649-9.634-28.189-13.943-5.528-2.498-10.255-6.357-16.066-8.305-6.528-2.187-12.898-4.851-19.311-7.378-8.613-3.394-16.877-7.726-25.957-9.86-4.448-1.045-9.173-1.255-13.396-2.842-7.759-2.915-15.842-4.361-23.881-5.698-9.812-1.632-19.84-1.911-29.713-3.235-13.461-1.805-26.871-3.744-40.505-4-11.288-0.211-22.508 1.228-33.756 0.978-7.645-0.17-15.164 0.929-22.752 1.237-5.471 0.222-10.913 1.511-16.333 2.513-11.109 2.053-22.258 3.956-33.274 6.438-10.732 2.419-21.589 4.119-32.19 7.419-10.346 3.222-20.544 7.252-31.367 9.149-2.345-4.049-4.599-7.843-6.759-11.689-5.583-9.937-10.872-19.836-22.722-24.256-6.144-2.292-12.123-5.65-18.393-7.197-7.472-1.842-15.781 0.071-22.745 2.216-13.02 4.009-24.671 11.562-32.64 23.262-1.76 2.585-4.515 4.271-5.715 7.248-1.666 4.13-3.529 8.181-5.157 12.324-3.632 9.243-7.327 18.393-4.921 28.796 1.834 7.93 2.593 16.028 6.283 23.566 1.873 3.827 0.43 7.97-3.396 10.85-3.783 2.847-7.808 5.564-10.931 9.052-4.802 5.361-10.566 9.723-14.926 15.573-5.094 6.835-10.679 13.354-16.538 19.55-5.199 5.497-8.576 12.224-12.69 18.349-4.231 6.296-9.854 11.601-13.281 18.693-3.702-0.48-7.416 0.595-11.007 1.401-13.006 2.925-24.862 9.139-37.153 14.061-13.116 5.252-24.263 13.97-35.532 22.331-6.895 5.115-12.752 11.194-16.705 18.908-2.932 5.721-5.277 11.806-8.757 17.161-3.397 5.232-6.419 10.54-8.258 16.454-4.75 15.288-7.387 31.057-9.845 46.817-0.772 4.952-2.314 10.075-1.94 14.929 1.062 13.771 3.006 27.48 4.813 41.187 0.629 4.769 1.521 9.563 2.914 14.157 2.852 9.404 8.639 17.492 12.467 26.482 0.789 1.852 1.876 4.143 3.479 4.978 5.544 2.888 5.49 6.803 3.117 11.633-0.701 1.427-0.866 3.117-1.578 4.536-5.592 11.15-7.141 23.593-10.519 35.379-2.012 7.02-3.811 14.509-4.96 21.946-1.108 7.176-3.753 14.347-3.506 21.442 0.32 9.19-1.023 18.14-1.438 27.202-0.07 1.542-0.484 4.106-1.417 3.732-2.948-1.182-5.538 0.866-8.443 0.019-10.646-3.105-21.524-15.881-22.036-27.87-0.587-13.74-4.184-26.929-6.335-40.37-0.609-3.81-1.943-7.728-6.535-10.281-3.39-1.886-7.204-2.964-10.215-5.016-5.823-3.969-11.838-1.588-17.73-2.124-0.533-0.049-1.234 0.444-1.674 0.874-4.069 3.988-9.013 7.452-11.934 12.164-4.818 7.773-8.148 16.278-7.881 25.954 0.143 5.187 1.743 10.284 1.005 15.759-1.396-0.685-2.528-1.316-3.717-1.811-7.882-3.279-16.113-3.087-24.142-1.342-8.621 1.874-14.364 8.364-19.637 14.9-0.936 1.16-2.523 1.327-3.097 3.119-1.833 5.729-2.94 11.167-2.744 17.5 0.22 7.114 2.507 12.619 6.201 17.927 9.191 13.208 19.227 25.638 31.553 36.237 3.249 2.794 5.918 6.754 9.365 9.587 6.255 5.141 12.835 9.833 20.15 13.487 4.199 2.097 9.061 2.335 12.984 4.785 6.897 4.308 14.509 6.28 22.382 6.662 10.143 0.491 20.327 0.183 30.492 0.076 2.626-0.027 4.993 0.601 5.267 3.279 0.968 9.466 5.702 18.861 0.834 28.505-0.168 0.334-0.386 0.562-0.37 1.149 0.306 11.484 0.271 22.979 0.709 34.456 0.31 8.096-1.028 16.085-1.001 24.131 0.021 6.355 1.453 12.817 0.664 19.029-0.649 5.125-0.762 10.276-0.409 15.191 0.83 11.581 1.501 23.188 2.51 34.765 1.395 16.004 2.48 32.038 4.188 48.018 0.667 6.236 0.52 12.55 1.185 18.733 1.474 13.704 4.327 27.265 5.662 40.978 1.494 15.356 3.583 30.61 8.242 45.258 3.547 11.151 5.751 22.627 9.476 33.768 3.317 9.923 5.937 20.324 7.631 30.873 1.263 7.859 5.715 15.296 6.426 23.131 0.727 8.002 4.006 15.135 5.199 22.925 1.697 11.086 6.783 21.251 10.936 31.675 5.314 13.34 9.486 27.102 17.005 39.521 4.516 7.46 9.271 14.701 14.571 21.627 2.364 3.09 3.222 6.686-1.326 8.998-2.521 1.281 2.261 0.907-0.083 2.109-5.462-2.116-11.002-3.155-17.298-0.233-13.392 6.213-23.958 14.883-29.572 28.852-0.415 1.032-1.138 2.186-0.978 3.161 0.834 5.08 1.854 10.132 2.912 15.172 1.263 6.014 7.84 9.719 7.292 16.572-0.013 0.161 0.917 0.282 1.216 0.601 4.109 4.38 8.186 8.792 12.55 13.498 0.574-0.125 2.156-1.015 2.951-0.552 4.371 2.546 9.141 3.817 13.855 5.467 6.961 2.437 13.476 6.035 20.536 8.494 9.217 3.21 14.926 10.811 19.598 19.119 3.202 5.694 5.562 12.267 10.019 16.729 3.934 3.94 8.908 7.135 13.225 10.97 4.394 3.903 9.895 6.66 15.367 8.347 7.39 2.277 15.45 4.704 22.162-2.438 1.493-1.589 3.684-1.66 5.853-1.931 4.539-0.568 9.596 0.168 13.262-3.382 2.575-2.493 5.384-4.672 8.053-7.028 5.696-5.028 8.295-12.459 13.665-17.837 2.229-2.232 3.762-3.16 6.91-1.852 3.314 1.379 5.351 4.27 8.494 5.825 8.06 3.989 15.734 8.715 24.477 11.3 10.735 3.174 21.372 6.686 32.042 10.08 13.265 4.221 26.363 9.09 39.828 12.519 11.041 2.812 20.816 8.804 32.163 10.88 15.652 2.864 31.067 7.021 46.593 10.587 13.208 3.034 26.572 5.334 39.686 8.859 5.608 1.508 11.519 3.68 16.986 3.761 12.31 0.182 24.291 4.064 36.714 2.502 5.372-0.676 10.366 2.609 15.832 2.875 12.456 0.605 24.875-1.045 37.354-0.098 10.372 0.788 20.594-2.346 31.035-2.021 10.782 0.336 21.213-3.231 32.072-3.079 1.389 4.141-1.033 8.003-2.14 11.9-1.517 5.345-4.558 11.161-3.239 16.061 2.059 7.65 3.207 15.872 7.055 22.822 2.975 5.372 6.218 11.621 13.866 12.162 2.643 0.187 5.952-0.689 7.793 0.592 3.111 2.165 6.038 1.393 8.871 0.858 11.3-2.13 20.841-8.283 30.407-14.193 4.159-2.57 8.482-1.272 9.521 3.65 0.328 1.557 0.459 2.733 2.174 3.41 2.327 0.918 3.575 3.724 5.422 4.628 3.829 1.873 2.798 6.503 6.653 8.65 5.494 3.061 10.79 6.774 16.025 10.425 2.949 2.057 6.145 5.686 10.1 4.741 2.457-0.587 4.519-0.189 6.041 0.713 7.396 4.381 15.445 2.902 23.162 2.588 7.967-0.325 15.146-3.475 21.394-8.967 3.87-3.401 6.14-8.075 10.077-11.228 13.383-10.715 12.977-27.031 7.859-40.11-2.037-5.205-6.898-8.361-9.59-13.019-3.699-6.4-9.405-10.871-14.901-15.234-11.764-9.339-26.187-13.907-39.64-20.162-7.684-3.572-15.896-5.844-24.043-8.208-2.299-0.668-3.68-2.463-3.659-5.06 0.02-2.43 1.688-3.749 3.512-4.665 3.781-1.899 7.351-4.253 11.071-6.115 12.123-6.066 22.953-13.892 33.649-22.093 5.274-4.044 10.88-7.787 15.367-12.603 7.478-8.025 15.726-15.21 23.479-22.921 3.506-3.487 8.116-6.415 10.26-10.604 4.039-7.891 11.784-13.156 14.702-21.517 1.802-5.164 7.875-7.262 8.404-13.138 0.225-2.499 1.953-4.36 3.865-6.004 1.735-1.491 2.928-3.46 3.662-5.612 1.544-4.53 3.457-8.87 5.642-13.141 2.051-4.008 6.065-6.891 7.618-10.628 3.985-9.59 10.209-18.064 13.425-27.953 1.455-4.475 4.204-8.358 5.686-12.745 2.609-7.727 5.598-15.348 8.43-22.955 4.221-11.336 5.06-23.407 9.454-34.75 2.643-6.823 1.469-15.348 1.592-23.066 0.279-17.377 0.931-34.707-3.514-51.994-3.436-13.365-6.815-26.746-10.601-40.021-2.855-10.017-6.499-19.867-8.534-30.044-2.986-14.932-3.879-30.32-7.423-45.093-5.067-21.122-5.78-42.627-7.522-64.027-0.833-10.232-1.53-20.53-0.585-31.028 1.149-12.754 2.423-25.6 2.448-38.479 0.01-2.888 1.253-5.74 0.938-8.747-0.208-1.982 1.449-3.72 2.705-3.62 3.449 0.272 5.068-2.831 7.653-3.952 6.461-2.802 13.114-5.371 19.456-8.56 3.811-1.916 7.347-4.006 10.173-7.187 5.104-5.741 7.223-12.968 9.876-19.938 3.735-9.823-2.488-21.762-8.724-27.687z"/>
	</g>
</g>
<path d="m659.864 928.304c-4.53209 2.25366-14.2022 5.09383-17.0866 6.33047 0.33476 3.0966-1.33775 5.95552-2.49938 6.78106-3.34703 2.37887-8.97314 7.4091-9.41503 13.1752-0.4419 5.76605 0.97283 9.94864 6.72683 11.9171 7.33545 2.50876 10.1468 0.28187 16.0789-4.00852 5.9321-4.29038 8.82517-8.97781 13.7068-13.7596 2.05078-2.00928 4.22945-3.23788 6.62773-4.36135 1.87605-0.87843 6.71077 0.70033 6.29633 1.7823-0.8637 2.253 1.57676 3.1803 1.41808 4.54951-0.21425 1.85059-2.877 1.98383-3.93353 3.53715-0.28857 0.42449-1.69594 2.50072-1.89346 2.6199 5.07911 9.73775 20.4785 22.9055 34.0948 27.7952 1.4114 1.01234 3.13348 1.1978 4.89504 1.46294 9.1639 1.9055 14.4741-6.08743 14.5798-8.82249 0.19358-4.99207-0.695-10.3872-4.7142-14.1768-7.04216-6.63912-11.9814-11.423-26.1434-19.3603-14.162-7.93736-34.3713-7.7365-38.7387-15.4616z" fill="#dec4a1" stroke-width=".669536"/><g transform="matrix(.652834 .148619 .148619 -.652834 -280.361 983.396)">
		<path d="m529.915 932.69c-27.672-17.37-25.052-23.147-31.998-85.805-4.139-37.339-77.102-29.961-79.35 11.635-1.885 34.918 19.701 122.813 111.347 146.426" fill="#dec4a1"/>
		<path d="m525.451 939.694c-13.0114-6.59115-25.3873-16.6275-29.447-31.255-5.82584-19.5547-7.07021-40.0758-10.143-60.169-0.24505-4.14489-4.89533-9.92266-9.9937-10.9145-14.7762-4.43696-33.8926 0.1586-41.8599 14.1956-3.7859 9.13661-1.4673 19.4012-0.38788 29.01 7.04506 42.5712 32.8468 82.8951 71.8202 102.738 8.67032 4.58075 17.8386 8.18055 27.2253 10.996-1.82967 7.1017-3.65933 14.2033-5.489 21.305-39.5854-8.3891-75.2377-33.3629-96.3903-67.8866-16.3335-26.4577-26.3566-57.4786-25.7637-88.735 0.2172-21.2676 16.6532-39.4314 36.3933-45.5819 20.4192-7.06505 46.7051-4.86645 61.0467 12.9255 9.35684 11.1694 7.55246 26.2778 9.151 39.7192 1.53222 14.203 0.87089 29.035 5.91325 42.5978 2.12258 8.26106 14.0666 12.3225 16.0711 18.2838-2.71546 4.25708-5.43093 8.51417-8.14639 12.7712z"/>
	</g><g transform="matrix(.669537 0 0 .669537 -144.347 -184.998)">
		<path d="m1156.37 1652.27c9.488 44.358-17.589 60.018 5.851 86.468 18.09 20.413 49.919 16.919 84.644 29.016 31.939 11.127 48.138 7.08 60.602-11.964 32.262-49.293-73.978-104.722-80.711-125.977" clip-rule="evenodd" fill="#dec4a1" fill-rule="evenodd"/>
		<path d="m1166.69 1650.17c6.0836 18.6996 3.8021 38.6418-0.078 57.5201-1.9397 7.7845 0.1937 16.1718 6.0765 21.7369 4.3818 4.6625 12.6828 9.9108 19.4122 13.0076 15.6502 6.7459 33.0874 6.8396 49.4972 10.7727 13.1096 2.5784 26.5016 8.5215 39.9518 4.7903 7.2771-3.1538 12.2699-9.6344 14.7003-16.893 2.8852-13.1547-5.8743-25.3155-13.1735-35.4046-18.273-23.5265-43.732-40.7598-60.1628-65.798-3.7259-9.452 10.7763-14.4748 16.1458-7.85 21.2007 15.2605 43.295 29.6204 61.671 48.383 15.5876 15.4486 30.4932 35.1392 29.3813 58.2424-1.2019 19.4807-13.9307 38.1278-31.6578 46.2915-19.9614 8.2721-41.7333 1.2655-60.5192-6.9356-19.1025-7.8777-39.7773-10.2042-59.9057-14.0154-19.99-4.6686-36.4882-22.7001-38.9972-43.1155-1.7862-19.1183 8.8425-36.8162 7.7197-55.9618 0.1622-5.24-2.9691-12.3523 4.6835-11.674 5.0851-1.0322 10.1703-2.0644 15.2554-3.0966z"/>
	</g><g transform="matrix(-.642569 -.188107 -.188107 .642569 1379.27 6.31743)">
		<path d="m1156.37 1652.27c9.488 44.358-17.589 60.018 5.851 86.468 18.09 20.413 49.919 16.919 84.644 29.016 31.939 11.127 48.138 7.08 60.602-11.964 32.262-49.293-73.978-104.722-80.711-125.977" clip-rule="evenodd" fill="#dec4a1" fill-rule="evenodd"/>
		<path d="m1166.69 1650.17c6.0836 18.6996 3.8021 38.6418-0.078 57.5201-1.9397 7.7845 0.1937 16.1718 6.0765 21.7369 4.3818 4.6626 12.6828 9.9108 19.4122 13.0076 15.6502 6.7459 33.0874 6.8396 49.4972 10.7727 13.1097 2.5784 26.5016 8.5215 39.9518 4.7903 7.2771-3.1538 12.2699-9.6344 14.7003-16.893 2.8852-13.1547-5.8743-25.3155-13.1735-35.4046-18.273-23.5265-43.732-40.7598-60.1628-65.798-3.7259-9.452 10.7763-14.4748 16.1458-7.85 21.2007 15.2605 43.295 29.6204 61.671 48.383 15.5876 15.4486 30.4932 35.1392 29.3813 58.2424-1.2019 19.4807-13.9307 38.1279-31.6578 46.2915-19.9614 8.2721-41.7333 1.2655-60.5192-6.9356-19.1025-7.8777-39.7773-10.2042-59.9057-14.0154-19.99-4.6686-36.4882-22.7001-38.9972-43.1155-1.7862-19.1183 8.8425-36.8162 7.7197-55.9618 0.1674-5.2329-2.9739-12.3498 4.6737-11.672 5.0884-1.0328 10.1768-2.0657 15.2652-3.0986z"/>
	</g>
<path d="m377.468 31.1093c-44.8685-0.515868-41.9134 51.0449-45.7134 75.8448-55.5804 53.5533-80.1794 129.66-105.226 200.753-29.7092 113.385-32.2707 232.739-21.5854 348.971 6.34432 60.1509 29.4979 119.425 68.8852 165.564 37.9161 26.5784 66.5239 67.4135 112.316 81.3914 48.2868 19.1344 99.125 32.5124 150.596 39.14 55.3414 6.17306 113.408-1.52473 159.829-34.7306 47.7873-31.2892 80.3608-83.2215 98.0803-136.644 17.3185-74.3356-29.1836-145.307-18.6548-219.872 1.00814-68.6329 20.0241-134.667 38.461-200.168 10.8467-45.3779 7.60533-94.6747-13.0454-136.828 36.1026-5.70319 68.52-53.2686 43.2282-85.7922-23.6054-40.0239-77.9614-24.7276-105.933-0.27068-41.0672-31.3488-87.3106-55.6306-135.306-74.6772-62.1457-18.3049-128.995-13.7915-190.043 6.69174-6.9303-15.5413-17.9218-27.7724-35.8883-29.3744zm143.749 29.4871c64.6806-1.25714 124.453 27.6673 178.326 60.5185 18.7409 11.8591 30.0334 21.2004 27.2013 37.991 24.8179-36.4411 102.101-63.5147 108.133 1.35864 4.1186 49.5643-68.7065 39.3781-53.0642 12.4116 14.4634 2.33039 45.6144-4.09817 12.7272-9.89436-16.1156-13.4164 46.1062-3.52918 13.7006-18.1468-30.9143-15.1981-88.8543 37.4776-39.8256 48.4888 38.8614 53.0673 42.9469 124.916 21.2066 185.819-30.0197 100.454-47.297 210.248-14.0004 312.172 15.2675 73.4894-25.8659 148.968-81.2654 195.229-61.8748 52.8385-149.737 47.7906-223.261 26.9993-43.4866-13.364-90.8634-23.2973-128.061-49.8046-28.3249-28.0675-64.1869-49.9292-79.9216-88.0916-39.9229-66.1484-49.1846-144.579-47.1357-220.432-4.01547-99.6362 4.8737-201.35 43.767-294.138 18.7291-49.5449 43.5529-98.3112 79.1461-137.758 52.0041-39.2924 116.379-65.3889 182.327-62.7229z" stroke-width=".669536"/><path d="m341.418 323.456c-11.6017 0.40864-24.8453 0.56929-33.8019 9.06082-10.6512 10.1222-15.694 25.8138-13.6914 40.2674 2.81844 12.1975 17.4198 18.0768 28.6626 14.1074 13.0404-3.45468 25.388-10.8442 39.3276-9.6626 16.1488 0.16565 28.6256 11.5891 41.034 20.41 15.7797 10.5827 33.8157 18.6067 52.8607 20.4814 10.6859 0.46921 20.7852-6.61497 24.3518-16.6404 4.44939-9.36518 3.60417-20.7072-2.02066-29.3941-8.82842-16.3856-25.2659-28.3821-43.6722-31.4552-6.86847-1.71937-22.8064-3.01953-28.5735-2.32865-2.70171 8.30716-13.0092 11.0158-21.3577 10.6672-10.8999 0.0308-23.077-4.1031-27.9211-13.8797 0.40675-6.1072-7.75964-11.6582-15.1983-11.6337z" fill="#dec4a1" stroke-width=".913435"/><path d="m409.44 413.068c-3.98125-2.70268-7.9722-5.96337-12.4374-8.32883-11.017-5.83965-22.0182-9.70809-35.2368-11.0522-9.81968-0.99835-24.1398 2.20532-32.693 5.99249-0.81882 13.5535 3.513 39.229 9.61224 54.2151 2.22717 5.47209 4.3476 9.89489 13.323 13.1895 8.1311 2.98412 11.4076-3.13695 10.4226-6.64147-2.87372-10.2309-3.36865-16.369-3.9679-24.7584-0.36755-5.13244-0.22563-19.8492 1.79411-24.6141 2.10101-3.03991 5.85906-5.35199 8.12625 0.17347 0.47917 2.85676-1.01169 8.01465-1.11722 14.3238-0.22684 13.4807 1.72254 31.5164 8.2233 43.9272 3.51058 6.70092 7.43239 10.7768 20.81 6.94837 6.73003-1.92633 4.20082-19.4331 4.14986-21.6021-0.17346-7.45544-0.0679-12.9142 0.97045-20.3308 1.60972-11.5046 7.30866-21.926 8.02072-21.442z" fill="#fff" stroke-width="1.21306"/><path d="m496.152 383.219c-2.10123-29.2162-34.7444-47.7643-62.7554-53.4138-7.7547-1.56412-13.3138-2.56185-23.5408-3.3105-9.00144-12.0092-26.8839-11.5096-31.7463-12.0857-4.66551-0.55257-14.991 0.79509-19.3424 4.97232-2.42431 0.0985-4.79003-0.58188-7.28188-1.50228 0 0-9.09746-1.61214-17.4918-2.34049-15.6339-0.45409-34.9421 3.3203-43.3259 21.2426-4.63296 9.90313-7.47638 15.415-7.47638 15.415-0.55502 2.15982-1.35742 4.68261-1.83757 7.26561-1.47867 7.95733 0.0309 15.4647 2.94353 22.972 25.5768 39.6138 65.6314 6.09871 90.1355 18.7195 82.8505 47.5088 124.352 28.6095 121.719-17.9342zm-73.386 20.4834c-13.8322-5.8334-23.0289-12.2379-35.4003-20.3954-6.07989-4.00878-14.4514-7.87196-22.0035-8.50014-8.77276-0.72916-15.9716 0.17-24.2667 3.65152-6.91322 2.9012-12.858 5.95701-20.4426 6.93837-5.99363 0.77556-12.5374-0.18635-17.7709-4.34804-5.03418-4.00235-6.72606-9.90325-6.0026-15.5974 1.19384-9.40589 4.61831-18.4985 11.7749-25.0284 4.31152-3.9339 9.59308-6.94902 16.0514-7.62692 5.82843-0.61117 11.6007-1.78873 17.4918-1.41519 3.12499 0.19775 6.22557 0.76822 9.64677 1.21093-1.12223 4.06818-0.15542 6.64223 2.20948 9.56051 7.6196 9.40102 18.5416 11.7839 29.1967 12.3772 9.04131 0.50293 24.2537-1.23055 27.3241-13.0632 13.8224 3.32519 31.7683 8.56931 43.9305 16.7725 10.6656 7.1939 18.1722 16.8692 18.6002 30.1244 0.88623 27.4154-33.815 22.3071-50.3392 15.3394z" clip-rule="evenodd" fill-rule="evenodd" stroke-width=".813802"/>
<g transform="matrix(.669537 0 0 -.669537 -159.705 1183.01)">
		<path d="m1317.08 989.172s-14.829 23.37-6.95 43.253c12.662 31.953 46.19 29.606 46.19 29.606s11.608 6.521 64.891-9.497c74.96-22.534 108.076-72.43 97.609-118.107-11.965-52.213-90.026-67.432-103.766-9.676-13.098 55.065-97.974 64.421-97.974 64.421z" fill="#dec4a1"/>
		<path d="m1323.1 999.55c-7.0977 10.8456-9.3657 26.0623-1.0634 36.8925 7.3604 11.7187 21.6099 16.5767 34.8388 16.5147 4.0883 1.0859 6.1337 0.6678 12.5712 0.6428 24.7913-2.845 48.9387-10.5748 71.6994-20.6538 28.4043-13.4285 56.3203-35.5676 64.0645-67.4541 2.4802-10.9391 2.0652-22.6729-1.4448-32.8267-7.9485-23.1228-37.4872-38.5054-60.1507-27.0043-11.2236 5.67042-14.5771 18.3488-17.777 29.4599-11.5721 31.7556-43.6318 49.8494-74.566 58.544-9.2288 2.65395-18.6516 4.62781-28.172 5.885zm-13.323-20.294c28.1845-4.53968 57.4-13.1738 78.5265-33.2932 8.7956-8.10043 12.9841-19.489 15.5752-30.8433 6.4913-22.2535 27.1375-39.4213 50.3938-40.8824 36.6703-3.62337 73.1334 24.2945 78.9245 60.71 7.0244 35.6218-11.3072 71.8968-38.9986 93.7454-31.9679 26.0374-73.0507 37.3298-113.126 43.2732-9.6658 0.8318-20.1994 2.3927-29.3337-1.7656 11.8938 2.1775-6.3884 0.9966-10.314-0.497-26.4431-5.1917-46.6751-32.4895-41.7736-59.3992 1.5885-10.814 5.1182-21.3409 10.1256-31.0478z"/>
	</g>

<path d="m476.119 218.379c-1.81376-0.0603-3.5358 0.86895-4.60306 1.99161-1.06725 1.12264-1.72922 2.42217-2.27145 3.87336-1.08446 2.90239-1.64628 6.5336-1.85431 10.8878-0.41605 8.70845 0.72333 20.233 3.95577 32.517 6.50503 24.7206 27.9023 42.0773 53.3145 52.8633 25.4122 10.786 55.0959 15.1895 79.701 13.6706 17.7037-1.09284 31.9528-7.80137 38.365-15.4412 1.60306-1.90995 2.78741-3.96099 3.09921-6.33575 0.31187-2.37476-0.61089-5.05463-2.45452-6.77121-3.68721-3.43318-9.47663-4.19847-18.322-3.59354-42.2628 2.89044-72.2654-1.77316-93.5704-12.937-21.305-11.1638-34.2766-28.774-42.6307-53.1379-1.87882-5.47949-3.6766-9.46696-5.54198-12.3341-1.86537-2.86716-3.88938-5.1434-7.18706-5.25298z" fill-rule="evenodd" stroke="#000" stroke-width=".15354"/><path d="m426.345 209.262c-0.47609 5e-3 -0.95146 0.0426-1.4293 0.10719-3.54623 0.47985-7.39911 2.33499-12.1955 5.66491-30.3092 21.0422-54.7857 30.9264-75.608 32.092-20.8223 1.16561-38.2758-6.15365-55.3688-20.6066-6.19987-5.24226-10.1802-7.99794-14.5232-8.23975-2.17149-0.12093-4.89401 1.32743-5.78783 3.4013-0.89381 2.07387-0.65336 3.99188-0.19092 6.00883 1.84976 8.06782 9.40362 19.7284 20.9623 31.0472 16.0666 15.7332 40.0078 19.157 63.9408 15.8531 23.9329-3.30388 48.174-13.3049 65.9794-25.4921 10.1173-6.92493 16.991-15.6574 20.2221-23.167 1.61553-3.7548 2.45122-7.20478 1.77584-10.5138-0.33769-1.65452-1.17929-3.34007-2.62323-4.5063-1.44293-1.16541-3.3178-1.66969-5.14968-1.649z" fill-rule="evenodd" stroke="#000" stroke-width=".15354"/></svg>
